<svg id="usa-territories-white" viewBox="0 -30 550 473" version="1.1" xmlns="http://www.w3.org/2000/svg" tabindex=""
     class="">
    <g id="usa_territories_white" fill="none" fill-rule="nonzero" stroke="#FFF" stroke-width=".5">
        <a id="ala" aria-label="Alabama" class="state-link" href="//cite.case.law/#ala">
            <path d="M367.63 184.5l2.45 14.12 2.23 11.16 1.35 3.48.83 1.99-1.56 1.95-.53 3.51.51 2.08-.23 1.95-.26 1.8.6 1.4.46 1.29-19.24.06-5.39.63-.15.83 2.15 2.65-.5 2.15-.68 1.49-8.37-1.2-.3-16.75 1.66-17.82 1.68-14.71-.68-2.21h11.86z"
                  class="state"></path>
        </a>
        <a id="alaska" aria-label="Alaska" class="state-link" href="//cite.case.law/#alaska">
            <path d="M72.54 263.07l2.66 5.08 1.63-2.17 6.22.67-.22 2.56 5.63 1.88 3.75-1.1 7.76 3.46 7.08 1.02 2.83 1.4 4.9-1.75 5.58 3.23 4 1.49-.02 36.3-.02 46.52 3.63.22 3.58 2.04 2.57 3.2 3.27 4.72 3.58-4.01 3.7-2.35 1.95 3.75 2.48 2.93 3.37 3.18 2.3 4.98 3.76 7.72 6.26 4.21.1 4.1-2.05 3.09-2.02-2.41-3.24-2.06-1.04-5.72-4.75-5.42-1.98-6.48-3.53-.45-5.85-.17-4.31-2.01-7.61-7.41-3.52-1.38-6.44-2.62-5.1.63-7.24-3.4-4.38-3.2-4.09 1.59.76 5.16-2.03.47-4.26 1.53-3.24 2.44-4.08 1.53-.53-4.26 1.66-7.26 3.91-2.33-1.01-1.91-4.69 4.23-2.51 4.95-5.3 5.18 2.69 3.48-3.48 5.05-3.96 2.9-3.68 2.09-.91 3-5.75 3.46-1.16 3.1-4.31 2.79-2.53-.5-3.44 1.81-3.74 2.19-3.06 2.13-6.32 1.81-.58-1.06 4.03-2.98 3.6-1.99 3.92-3.56 4.57-.74 1.81-2.71 5.1-4.01.82-1.36 2.72-2.41.64-5.25 1.87-4.17-4.24 2.15-1.19-1.22-1.99 2.56-2.4-3.58-.99 2.54-1.38-3.54-3.68 2.85-2.26-.01-.32-4.24.67-2.65-2.37-2.6-4.79 1.4-3.11-3.45-2.52-1.79-.02-4.27-2.84-3.26 1.42-4.47 3-4.42 1.31-4.14 2.98-.6 2.53 1.3 2.97-3.95 2.67.71 2.81-2.57-.68-3.83-2.06-1.53 2.72-3.31-2.26.1-3.91 1.87-1.12 1.88-2.9-1.88-5.21.96-5.39-2.05-1.55-3.48-4.66-5.13 5.17-3.76 8.21-4.47h3.03l-.5 4.57 7.77-.35-2.99-5.7-4.53-3.57-2.62-4.78-3.53-4.16-5.06-3.13 2.06-5.29 6.53-.33 4.65-4.71.88-5.14 3.76-5.14 3.59-1.25 6.98-4.93 3.38.75 5.67-6.05 5.6 2.43zm-61.34 71.3l2.27 1.58 2.29-.85 2.98 2.18 3.66 1.1-.3.89-2.79 1.72-2.8-1.77-1.4-1.48-3.24.48-.88-.72.21-3.13zm22.65 30.21l-2.26 1.14-2.41-1.37-2.23-2 3.63-1.27 2.92.67.35 2.83zm46.28 19.67l-3.68 2.57-1.88-1.73-.57-3.18 3.34-2.44 1.97-1.05 2.44.47 1.56 2.14-3.18 3.22z"
                  class="state"></path>
        </a>
        <a id="am-samoa" aria-label="American Samoa" class="state-link" href="//cite.case.law/#am-samoa">
            <path d="M298.79 320.02l-.9-.53-.26-1.19-.52-.03-.25-.28-.5.34-1.19-.47.18-.6.73-.64.53-.08.09-.42.7-.29 1.19.24.68-.27.48.46 1.46-.74 1.07-1.21 1.48-.86.34-.59-.09.95 1.62-.17 2.99.56.29-.57.83.02-.13 1.14-1.5.9h-.58l-.06-.47-.82-.26-.52.71-1.43.47-.42-.38.15-.34-.22-.53-1.08.33.5.56-.01.42-1.29 1.4-.53.12-1.37 2.24-.66-.16-.45.83-.53-.61zm11.19-4.74l.54.33-.33.26-.45-.17.24-.42zm25.15-2.92l2.17.66-1.99.98-.61-1.49.43-.15zm2.35.56l.75-.59.47 1.18-.25.58-.97-1.17zm6.59 2.44l.55.38.85-.29.43.13.44-.38.53.21 1.33-.1.42.4-.38.9-.04 1.12-2.1-.26-1.08 1.05-.62-.37-.38-1.17-.9-.97.95-.65z"
                  class="state"></path>
        </a>
        <a id="ark" aria-label="Arkansas" class="state-link" href="//cite.case.law/#ark">
            <path d="M329.56 172.54l-.1.96-.96 1.64-1.65 1.12-.37 1.91-1.49 1.52.11 3.34-1.07 1.07-.18.91-1.69.86-.03 1.65-1.26 3.06-1.09.64-1.67 1.55-1 2.34-2.06 3.94-.21 2.67 1.09 2.95-.46 2.21-7.97-.38-10.3.37-9.11-.01.54-6.38-2.18-.04-1.83.15-.49-.74.27-9.92.19-11.14-1.87-12.28 11.47.17 10.43.03 9.95.01 10.75.71.78 1.45-1.06 1.25-1.06 1.25-.58 1.16z"
                  class="state"></path>
        </a>
        <a id="ariz" aria-label="Arizona" class="state-link" href="//cite.case.law/#ariz">
            <path d="M146.76 161.13l.01 64.27-18.67.06-21.51-7.77-14.24-5.4.87-2.14 1.25.01 1.04-2.23-1.67-1.54-.33-1.68-.49-1.98 1.84-2.59.75-5.17 2.86-2.33-1.79-2.18-1.22-2.15-.78-2-.52-1.55-.19-1.03.58-2.25-.46-2.26-.2-2.23.01-2.49-.84-1.59.64-1.43h1.99l1.8.82 1.29.46.62-1.77.41-.39-.07-9.4 15.21-.18 18.13.02z"
                  class="state"></path>
        </a>
        <a id="cal" aria-label="California" class="state-link" href="//cite.case.law/#cal">
            <path d="M43.45 100.31l-.01 37.03 17.79 16.18 16.91 15.54 15.83 14.67.19 1.03.52 1.55.78 2 1.22 2.15 1.79 2.18-2.86 2.33-.75 5.17-1.84 2.59.49 1.98.33 1.68 1.67 1.54-1.04 2.23-1.25-.01-11.97 1.17-10.72.86-1.14-4.11-4-5.8-10.06-6.75-3.8-.42-4.09-3.57-7.46-.87-2.41-1.84-1.15-6.28-9.15-11.61-7.85-16.32.33-2.75-4.16-3.93-7.29-10.06-1.31-9.9-5.02-6.7 2.06-10.28-.33-10.77z"
                  class="state"></path>
        </a>
        <a id="colo" aria-label="Colorado" class="state-link" href="//cite.case.law/#colo">
            <path d="M212.73 125.1l.1 18.69-.01 17.43-9.08-.04-11.29-.01-16.03-.01-14.9-.03h-14.76l-.08-48.4h18.9l18.89-.02H212.75l-.02 12z"
                  class="state"></path>
        </a>
        <a id="conn" aria-label="Connecticut" class="state-link" href="//cite.case.law/#conn">
            <path d="M498.01 100.05l.08 6.88-.58 1.83-4.16.63-5.48.62-7.36 2.93-.34-1.52 2.05-1.21-.74-1.07.53-9.62 7.22.24z"
                  class="state"></path>
        </a>
        <g id="Dakota-Territory-group" transform="translate(192 -30)">
            <a id="dakota-territory" aria-label="Dakota Territory" class="state-link"
               href="//cite.case.law/#dakota-territory">
                <path transform="rotate(20 15 85.07)"
                      d="M4.5 9.473v26.76-26.76A4.5 4.5 0 115.502.527 4.5 4.5 0 014.5 9.473z"
                      id="Dakota-Territory-pointer" class="state state-pointer"></path>
                <path d="M1.59 78.01L1.11 61.4.97 35.57l32.66.04 32.07.03.14 1.41.88 2.06-.06 1.66-.32 1.81.12 2.77.16 2.57 1.1 2.57 1.14 2.88.47 2.83.18 1.66.04 1.86.39 4.06.32.75.11 3.13.46 2.78.79 2.21.59 2.07-.01 2.46-.16 1.97-2.11 1.5-.51 1.83.93 2.07L72 85.59l1.15 12.71-.13 12.19-1.26.01-.01 3.15 1.21 1.72-.23 1.39-.49 2.06-.76 2.1 1.53 1.42-.01 1.17-1.59-.18-.8-.61-.43-1.06-2.59-1.07-2.44-1.65-3.37.13-2.24-.05-.81.59-3.47-1.02-2.44-1.62H1.35l-.24-26.68z"></path>
            </a>
        </g>
        <a id="del" aria-label="Delaware" class="state-link" href="//cite.case.law/#del">
            <path d="M464.02 127.62l-1.4 1.27.24 2.35 1.97 6.53 2.56 6.15h-6.29l-.69-15.42.73-.97.85-.55z"
                  class="state"></path>
        </a>
        <a id="fla" aria-label="Florida" class="state-link US-FL" href="//cite.case.law/#fla">
            <path d="M406.63 232.08l1.23 7.94 3.59 8.85 4.24 8.03v4.15l4.1 10.84.4 9.37-1.96 9.01-3.95 1.83-4.65-1.26-1.49-4.55-3.58-2.4-5-9-4.62-7.69-.86-5.1 1.62-6.49-2.17-5.99-6.13-6.46-5.38-4.12-10.61 4.55-2.17-3.03-8.91-4.89-10.66 1.37.68-1.49.5-2.15-2.15-2.65.15-.83 5.39-.63 19.24-.06 1.44 2.94 9.48.51 15.29 1.63.7 1.9 1.22-.97.02-3.79 1.14-.37 1.87.8z"
                  class="state US-FL"></path>
        </a>
        <a id="ga" aria-label="Georgia" class="state-link" href="//cite.case.law/#ga">
            <path d="M391.67 184.58l-1.03.95-1.51 2.17 2.54 1.89 1.64.7 1.76 3.59 1.12 2.01 3.28 2.68.65 1.41 2.24 1.83 1.1 2.68 3.01 2.26.67 2.55.56 1.24-.32.82 1.76 1.22.92 2.08-.01 2.11.86.41 1.62.57-4.1 8.08-1.8 6.25-1.99-.2-1.87-.8-1.14.37-.02 3.79-1.22.97-.7-1.9-15.29-1.63-9.48-.51-1.44-2.94-.46-1.29-.6-1.4.26-1.8.23-1.95-.51-2.08.53-3.51 1.56-1.95-.83-1.99-1.35-3.48-2.23-11.16-2.45-14.12 7.28.11 5.03-.12z"
                  class="state"></path>
        </a>
        <a id="guam" aria-label="Guam" class="state-link" href="//cite.case.law/#guam">
            <path d="M459.12 385.32l.77-.26 1.51-1.89-.3-.64 1.2-.57.68-.46 1.01-.76.69-2.01.2-2.34.01-1.6-.64-.5.74-.63-.16-3.57.68-2.65 1.27-2.11.03-1.1.7-.83 1.21.21 1.13-1.57 1.25-.41 1.76-2.04 1.52-.59 1.98-2.46 2.24-1.35.7-1.45.61-.57 2.25-.92 1.12-1.7 1.19-3.68.69-1.21.63-2 .08-1.16-3.07.11-1.73-.24-1.04-2.08-1.43-1.19-.31-1.15-2.17-1.7-1.39-.1-.65.55-1.61 3.12-.34 1.15.08 2.42-.69 1.74-.47.41-2.41 4.38-.25 1.69.23.97-.36.74-1.07.45-1.35-.31-1.04.65-.3.8.56 1.02-.63.76-.63.19-1.13-.25-.66.54-2.17-.36-1.17.77-.76-.18-1.2.87-1.71.51-.7 2.42-1.55-.12-.01.85.71.28-.51 2.2-.59-1.14.02-1.7-2.04-.11-1.71-.64-1.18.09.05.8 1.64 1.05.61 1.4 1.91 1.48.41 1.17-.05.85-.96.82-.75 3.38-1.08 1.73.89.2 1.43 2.91-.28.77.16.69.62.36-.52 2.02.67 1.58 1.56 1.82 3.53 1.22.75.04z"
                  class="state"></path>
        </a>
        <a id="haw" aria-label="Hawaii" class="state-link" href="//cite.case.law/#haw">
            <path d="M178.7 301.77l-1.43 1.28-1.81-.44-2.21-1.74.77-1.29 1.8-1.09 2.78.05.58.86-.48 2.37zm19.87 6.76l1.05 1.96-2 .51-1.26-.94-.69.18-.28.14-1.58-.03-1.99-3.49 1.84-.2 1.96-1.32 1.63 3.01 1.32.18zm12.34 3.95l-1.81 1.29-5.27-.73.49-1.53 6.59.97zm1.55 1.58l1.52 1.56 2.24-.48 3.17 2.07.06 1.01-1.15.91-3.69.51-.87-2.55-1.66-.27-1.01-1.66.5-.98.89-.12zM225.32 339l-1.11 1.87-3.13-1.37-.12-4.02-1.93-4.74 2.79-3.42-.89-1.99.23-1.2.52-.21 7.75 3.65 1.38 1.54.25 1.65.94.21.45 1.13 1.82 1.55-3.05 2.65-3.14.76-2.76 1.94z"
                  class="state"></path>
        </a>
        <a id="idaho" aria-label="Idaho" class="state-link" href="//cite.case.law/#idaho">
            <path d="M127.52 67.87l.34.24-.01 32.08-28.14.11-28.24-.09.14-23.05.82-3.71-.76-1.71-1.77-.88.02-2.11 1.33-2.99 2.03-2.62 1.35-4.29 1.27-3.45.95-1.74-.5-2.04-1.58-1.1-2.23-2.6.08-2.41-.86-2.07-.27-19.21-.05-18.06 9.27-.02.76 14.89 2.49 3.72-.01 2.51 1.75 2.22 2.18 1.31 1.57 2.15 2.63 4.25 2.43 1.99 2.84.13-1.04 3.03-.91 3.58.79 3.48-1.1.87.1 3.45 1.68 1.33 1.86-1.6.96-1.89 1.15.37 1.13 1.85 1.08 4.23 1.67 1.66.6 3.48.57.96 1.92.33 1.16 1.92 1.67 3.42 1.74-1.82 3.09.48.25-1.3 5.33.82 2.16-.42 1.34-2.62 1.02.36.92 1.85z"
                  class="state"></path>
        </a>
        <a id="ill" aria-label="Illinois" class="state-link" href="//cite.case.law/#ill">
            <path d="M347.09 93.91v.03l.08 3.31 2.54 6.64h0l-.01 14.45-.01 14.19-1.08 3.38.78.89.5 2.06-.08 1.62-.79.74-.68 1.99-1.96 2.61-1.32 3.21-.3 2.41.06.88-1.07 1.65.81 1.12-1.65.86-2.14.99.36 2.58-1.23.97-2.28-1.09-2.51-.63-.64 1.14.37 1.78-1.68-1.83-1.01.31-1.21-2.9.35-1.77-.71-2.87-.95-.35-2.47-2.61-1.07-.05-1.86-1.68-1.34-1.8.61-2.1.87-1.75.53-2.22-1.79-1.94-1.78.78-1.08-.51-.15-2.02-.79-2.3-.87-.56-2.17-1.63-1.8-2.07-1.56-2.51-.85-3.67.83-3.06.19-2.25 2.41-1.84.63-1.89 1.23-2.15-.4-1.93-1.17-.97.85-2.16 3.23-.61 2.16-.73.63-.9 1.75-2.85.5-3.4-.97-1.09-1.49-1.02-.45-1.37-1.11-.65-.55-.97h9.63l9.84.03 7.26.11v-.03z"
                  class="state"></path>
        </a>
        <a id="ind" aria-label="Indiana" class="state-link" href="//cite.case.law/#ind">
            <path d="M375.35 104.28l-.03 11.3-.07 11.99-.06 8.43-.54.57.77 2.47-.41.89-1.59.02-1.47 1.06-2.23-.43-.21 2.31-1.32.88-1.24 2.06-1.34.37-2.07 3.55-1.91-1.02-.6-1.46-1.64 2.38-1.04 1.32-2.03-1.4-2.18 1.14-.71 1.15-2.9-1.81-2.03 1.3-2.43-.92-.09 1.32-1.22-.31.3-2.41 1.32-3.21 1.96-2.61.68-1.99.79-.74.08-1.62-.5-2.06-.78-.89 1.08-3.38.01-14.19.01-14.45h0l.86.85 3.21-.07 2.55-1.38h0l10.15.06 8.87-.06z"
                  class="state"></path>
        </a>
        <a id="iowa" aria-label="Iowa" class="state-link" href="//cite.case.law/#iowa">
            <path d="M314.79 81l.14.71 1.23 2.05-.85.98.03 2.7.39 1.15.6 2.03 3.08 1.23.92 1.95.55.97 1.11.65.45 1.37 1.49 1.02.97 1.09-.5 3.4-1.75 2.85-.63.9-2.16.73-3.23.61-.85 2.16 1.17.97.4 1.93-1.23 2.15-.63 1.89-2.41 1.84-.19 2.25-1.3-1.03-1.8-2-10.31.27-10.85.09-8.45.02-8.47-.01-.62-2.24.26-2.22-.2-2.15-.97-3.6-.63-1.5-.67-.41-.08-2.91-.59-2.09-1.71-2.38.02-1.05-.6-2.1-.42-1.26.01-1.17-1.53-1.42.76-2.1.49-2.06.23-1.39-1.21-1.72.01-3.15 1.26-.01 10.31.02 12.81-.17 13.78-.08z"
                  class="state"></path>
        </a>
        <a id="kan" aria-label="Kansas" class="state-link" href="//cite.case.law/#kan">
            <path d="M282.78 161.13l-8.28.01-16.97.02-16.98.02-9.43.02-9.43.01-8.87.01.01-17.43-.1-18.69h63.45l2.24 1.63 1.22-.02.27 1.77-1.32 2.26.71 1.16 1.17 2.55 2.48 1.15-.1 12.87z"
                  class="state"></path>
        </a>
        <a id="ky" aria-label="Kentucky" class="state-link" href="//cite.case.law/#ky">
            <path d="M396.27 144.32l.18 1.14-.1 2.48 1.12 1.86.46 1.81 1.37 1.54.95 1.43 1.83.22-3.77 3.52-2.94 1.38-.23.95-1.01 1.24-2.58 1.4-.84 1.14-1.94.73-2.73.66-6.38.38-8.31-.5-2.71.14-5.41-.32-5.52-.1-5.08-.06-5.9.33-.31-.53-1.87.02.03 1.84-13.47-.11 2.11-1.23 1.5-.97-.18-1.84.3-1.18-.37-1.78.64-1.14 2.51.63 2.28 1.09 1.23-.97-.36-2.58 2.14-.99 1.65-.86-.81-1.12 1.07-1.65-.06-.88 1.22.31.09-1.32 2.43.92 2.03-1.3 2.9 1.81.71-1.15 2.18-1.14 2.03 1.4 1.04-1.32 1.64-2.38.6 1.46 1.91 1.02 2.07-3.55 1.34-.37 1.24-2.06 1.32-.88.21-2.31 2.23.43 1.47-1.06 1.59-.02.41-.89-.77-2.47.54-.57 3.23.28 1.67 1.17 2.51 2.72 2 .86 1.45.97 2.24-.34 1.66.69 2.02-.66 1.79-.2.75 1.68z"
                  class="state"></path>
        </a>
        <a id="la" aria-label="Louisiana" class="state-link" href="//cite.case.law/#la">
            <path d="M315.47 206.88l.68.64-.86 1.61 1.36 2.3-.38 1.38 1.21 1.91-1.3 1.13-.44 2.1-1.82 1.72-.85 2.32-.86 2.65-1.15 1.23.38 2.74 8.32.35 8.89.02-.27 1.82-.63 1.79.6 1.38 1.25 1.26.33 1.8.17 1.08-1.08 4.51 2.94 6.46-12.97.43-8.01-2.2-5.44-2.21-7.18-1.4-8.17-.32-.77-1.43.96-1.59 1.41-1.43.03-2.17-.69-.72.82-2.6.6-1.19.91-4-.83-1.49-1.09-2.5-.81-2.55-.52-1.71-1.55-1.25-.57-11.89 9.11.01 10.3-.37z"
                  class="state"></path>
        </a>
        <a id="me" aria-label="Maine" class="state-link" href="//cite.case.law/#me">
            <path d="M508.91 86.31l-1 .13-.44-1.8-1.73-1.91.35-1.28-1.21-23.93 3.89-2.33 3.35-6.12L515 38.48l7.19-10.41 3.14 3.64 6.32-2.35 4.19 3.99-.01 18.59L542 59.5l.13 5.65-9.18 4.19-9.16 3.09-10.7 7.84z"
                  class="state"></path>
        </a>
        <a id="md" aria-label="Maryland" class="state-link" href="//cite.case.law/#md">
            <path d="M460.41 128.5l.69 15.42h6.29l.53 1.09-3.64 4.1-2.19.18-.74.81-4.8-5.71-.4-9.04-1.56 4.25.13 10.38-5.64-3.55-.55-1.69-1.54.52-1.25-.65 1.07-2.68 1.61-1.13.17-.97 1.22-1.08-1.19-1.25-.77.58-1.75-1.34-2-.73.7-1.31-1.25-.91-1.39-.41-.74-1.55-1.15-1.74-2.91-.97-1.82.93-1.03.9-2.78-.49-1.27 1.27-1.86.49-1.62 1.4-1.45 1.08.08-6.17 8.75.01 2.99-.02 6.69-.05 8.07.06z"
                  class="state"></path>
        </a>
        <a id="mass" aria-label="Massachusetts" class="state-link" href="//cite.case.law/#mass">
            <path d="M507.31 89.2l-.09 6.77 3.11 6.71 3.91.31-.99-4.61 2.83 2.81-.75 3.6-6.37 2.03-4.53-.24-.26-1.92-1.48-1.45-.7-3.3-3.98.14-8.78-.29-7.22-.24 2.03-8.76 7.78.21 11.4.11.97-1.26 2-.87z"
                  class="state"></path>
        </a>
        <a id="mich" aria-label="Michigan" class="state-link" href="//cite.case.law/#mich">
            <path d="M377.84 40.6l3.15.42-1.2 1.35 4.69 5.41-8.31 1.22-.32-.06-7.42-1.43-7.36 2.7-6.41 1.21-5.54 8.53-.24-.09-.01.02-1.26-1.57.7-2.15-2.08-.12.43-2.18.57-1.08-.83-1.89-2.23-.86-.52-2.22-1.84-.17-2.67-.02-5.44-2.44-8.25-2.43-.76-2.46-1.48-.45-.01-.04-.58.28-.08-.07.08.07 7.28-3.49 7.57-4.47 8.32-4.59-3.03 7.3 5.35 1.75 6.64 5.22 8.37-3.04 9.27-1.2 1.98 3.83 2.88.55.59-1.34zm20.17 46.96l-.24.17-4.44 7.03-2.07 4.45-3.23 4.87-3.56.11h-4.29l-4.83.09-.01-.99-8.87.06-10.15-.06 1.91-1.74 3.83-6.17.26-8.44-3.13-7.99.47-5.53 2.46-6.45 2.35-4.44 3.77-3.18.88 4.46 1.67-6.57 2.08-1.36 1.32-5.11 8.02 2.69 6.98 5.22.77 6.04-.86 6.01-5.19 5.23.48 3.28 1.87.11 5.85-5.73 3.49 1.31 1.7 7.54.47 5.28.24-.19z"
                  class="state"></path>
        </a>
        <a id="minn" aria-label="Minnesota" class="state-link" href="//cite.case.law/#minn">
            <path d="M330.15 20.2v.01l-9.62 4.62-6.7 5.56-6.4 5.82-.03 2.02-2.48.76.1 7.64-.3-.01-2.33 1.5-2.01 1.29-1.35 2.48 1.98 2.52-.71 3.37-.01 3.6-.29 2.92 2.75 2.54 1.13.12 3.05 1.88 1.06.89.66 1.41 2.38 2.25 3.18 1.94.31 1.08.02 3.13.25 1.46-12.37-.24-13.78.08-12.81.17-10.31-.02.13-12.19-1.15-12.71-1.65-1.04-.93-2.07.51-1.83 2.11-1.5.16-1.97.01-2.46-.59-2.07-.79-2.21-.46-2.78-.11-3.13-.32-.75-.39-4.06-.04-1.86-.18-1.66-.47-2.83-1.14-2.88-1.1-2.57-.16-2.57-.12-2.77.32-1.81.06-1.66-.88-2.06-.14-1.41 19.52.02.03-5.53 3.19-.08 1.67 7.89 2.94 2.42 6.59.87 9.62 2.27 9.15 4.38 7.64-1.84z"
                  class="state"></path>
        </a>
        <a id="miss" aria-label="Mississippi" class="state-link" href="//cite.case.law/#miss">
            <path d="M343.66 184.35l.68 2.21-1.68 14.71-1.66 17.82.3 16.75-5.78 2.44-5.42-.17-.17-1.08-.33-1.8-1.25-1.26-.6-1.38.63-1.79.27-1.82-8.89-.02-8.32-.35-.38-2.74 1.15-1.23.86-2.65.85-2.32 1.82-1.72.44-2.1 1.3-1.13-1.21-1.91.38-1.38-1.36-2.3.86-1.61-.68-.64.46-2.21-1.09-2.95.21-2.67 2.06-3.94 1-2.34 1.67-1.55 1.09-.64 1.26-3.06.03-1.65 1.69-.86.18-.91h9.29z"
                  class="state"></path>
        </a>
        <a id="mo" aria-label="Missouri" class="state-link" href="//cite.case.law/#mo">
            <path d="M312.89 120.58l-.83 3.06.85 3.67 1.56 2.51 1.8 2.07 2.17 1.63.87.56.79 2.3.15 2.02 1.08.51 1.78-.78 1.79 1.94-.53 2.22-.87 1.75-.61 2.1 1.34 1.8 1.86 1.68 1.07.05 2.47 2.61.95.35.71 2.87-.35 1.77 1.21 2.9 1.01-.31 1.68 1.83-.3 1.18.18 1.84-1.5.97-2.11 1.23-.25 1.13-.57 1.66-.73 2.84h-6.16l.58-1.16 1.06-1.25 1.06-1.25-.78-1.45-10.75-.71-9.95-.01-10.43-.03-11.47-.17.11-5.38h-.05l.07-12.66.1-12.87-2.48-1.15-1.17-2.55-.71-1.16 1.32-2.26-.27-1.77-1.22.02-2.24-1.63-1.23-2.63-1.46-1.58-1.59-1.95-.19-1.02 8.47.01 8.45-.02 10.85-.09 10.31-.27 1.8 2z"
                  class="state"></path>
        </a>
        <a id="mont" aria-label="Montana" class="state-link" href="//cite.case.law/#mont">
            <path d="M194.09 48.51l-.48 12.28-15.73-.14-16.99.07-14.67-.14-18.57.09.04 6.73-.17.47-1.03-.73-.92-1.85-1.02-.36-1.34 2.62-2.16.42-5.33-.82-.25 1.3-3.09-.48-1.74 1.82-1.67-3.42-1.16-1.92-1.92-.33-.57-.96-.6-3.48-1.67-1.66-1.08-4.23-1.13-1.85-1.15-.37-.96 1.89-1.86 1.6-1.68-1.33-.1-3.45 1.1-.87-.79-3.48.91-3.58 1.04-3.03-2.84-.13-2.43-1.99-2.63-4.25-1.57-2.15-2.18-1.31-1.75-2.22.01-2.51-2.49-3.72-.76-14.89 28.19-.02 28.19-.02 28.18-.02 28.2-.02.14 25.83z"
                  class="state"></path>
        </a>
        <g>
            <a id="neb" aria-label="Nebraska" class="state-link" href="//cite.case.law/#neb">
                <path d="M265.5 94.01l.42 1.26.6 2.1-.02 1.05 1.71 2.38.59 2.09.08 2.91.67.41.63 1.5.97 3.6.2 2.15-.26 2.22.62 2.24.19 1.02 1.59 1.95 1.46 1.58 1.23 2.63H212.73v-.39l.02-12h-18.83l-.07-25.24h51.47l2.44 1.62 3.47 1.02.81-.59 2.24.05 3.37-.13 2.44 1.65 2.59 1.07.43 1.06.8.61z"
                      class="state"></path>
            </a>
        </g>
        <g>
            <a id="nev" aria-label="Nevada" class="state-link" href="//cite.case.law/#nev">
                <path d="M99.71 100.3l.03 60.9.07 9.4-.41.39-.62 1.77-1.29-.46-1.8-.82H93.7l-.64 1.43.84 1.59-.01 2.49.2 2.23.46 2.26-.58 2.25-15.83-14.67-16.91-15.54-17.79-16.18.01-37.03 28.02-.06v-.04z"
                      class="state"></path>
            </a>
        </g>
        <g>
            <a id="nh" aria-label="New Hampshire" class="state-link" href="//cite.case.law/#nh">
                <path d="M508.91 86.31l-1.6 2.89-1.12-.25-2 .87-.97 1.26-11.4-.11-.75-1.33.74-1.66.23-3.38.29-.81.32-3.06 1.03-2.59.78-1.13 1.12-3.1.21-2.1.32-1.28 1.82-.63 2.11-1.53.37-1.64-.7-1.89 1.11-3.61-.02-.01.95-3.28 3.13-.42 1.21 23.93-.35 1.28 1.73 1.91.44 1.8z"
                      class="state"></path>
            </a>
        </g>
        <g>
            <a id="nj" aria-label="New Jersey" class="state-link" href="//cite.case.law/#nj">
                <path d="M478.1 113.25l-3.25 6.04 2.37.53-1.63 8.85-6.86 9.35-.71-3.11-2.07-.63-2.26-3.18-.83.14-.24-2.35 1.4-1.27 1.93-1.12.68-.77 2.23-1.62 1.22-1.34-2.97-3.19-.17-1.31-1.02-.38.04-1.99 1.11-1.52-.51-1.62 1.51-1.09 1.65-2.8 1.15-.55z"
                      class="state"></path>
            </a>
        </g>
        <g>
            <a id="nm" aria-label="New Mexico" class="state-link" href="//cite.case.law/#nm">
                <path d="M203.74 161.18l.02 5.81v51.14h-34.22l.1.94 1.05 1.77h-16.23l-.12 4.54-7.57.02-.01-64.27h14.76l14.9.03 16.03.01z"
                      class="state"></path>
            </a>
        </g>
        <g>
            <a id="ny" aria-label="New York" class="state-link" href="//cite.case.law/#ny">
                <path d="M484.04 90.76l-2.03 8.76-.53 9.62.74 1.07-2.05 1.21.34 1.52 13.35-1.67 2.8 2.36-13.21 3.72-6.01.03.66-4.13-7.23-4.93-1.52-.89-1.61-.87-.61-1.82.25-1.39-1.12-1.14-2.05-1.98-12.81-.02H422.95v-3.43l8.11-7.6-.18-1.23v-.03l-1.29-3.72 4.91-1.63 7.42.48 7.72 1.07 7.07-4.27-.56-5.07-1.07-2.03-.03-.02h0l.03.02 9.76-8.98 4.26-2.44 14.33-.09-.2 2.69-.37 1.7.22 3.91.52 2-.95 2.71.87 3.41-.6 1.89.17.49 1.35.1z"
                      class="state"></path>
            </a>
        </g>
        <g>
            <a id="nc" aria-label="North Carolina" class="state-link" href="//cite.case.law/#nc">
                <path d="M459.66 166.39l1.32 11.62-6 8.52-9.25 4.39-8.07 5.72-3.34.66-10.55-10.76-10.47-.11.02-1.33-1.47-1.94-.95.76-.08-1.02-4.41-.53-8.7-.09-5.09 1.96-.95.34-11.73-.09.21-2.43 1.99-.72.65-1.24 1.34-1.39 1.91-.31 2.22-.53 2.16-1 .93-1.02 1.8-.92-.05-.84 2.37-1.57.76 1.02 3.48-2.19 1.63.23 1.45-1.96 1.92-.5-.1-1.67.24-1.46 15.91.5 18.79.06 9.98-.1z"
                      class="state"></path>
            </a>
        </g>
        <g>
            <a id="nd" aria-label="North Dakota" class="state-link" href="//cite.case.law/#nd">
                <path d="M258.2 6.14l.14 1.41.88 2.06-.06 1.66-.32 1.81.12 2.77.16 2.57 1.1 2.57 1.14 2.88.47 2.83.18 1.66.04 1.86.39 4.06.32.75.11 3.13.46 2.78.79 2.21.59 2.07-.01 2.46-17.94.74-15.32-.03-19.34.06-18.01.06-.48-16.61-.14-25.83 32.66.04z"
                      class="state"></path>
            </a>
        </g>
        <g>
            <a id="n-mar-i" aria-label="Northern Mariana Islands" class="state-link" href="//cite.case.law/#n-mar-i">
                <path d="M487.09 261.62l-.32-.52h-.43l-.58.3-.29.58.2.74.49.38-.41 1.49-.8-.6-1.21.02-.96-.84.53-2.15.58-1.07.1-1.85 3.14-2.16.87-1.14.91-.66 1 .79-.04.64-.14.27-.72-.04-.13 1.08-1.08.73-.5 2.09.83 1.32-.36.68-.68-.08zm-6.14 10.82l.52-.07-.17-.41.6-2.39-.2-.8-.95-.78-.08-.96.49-.62-.09-1.35-.29-.79-.51-.2-2.32 2.67-.75 1.94.59 1.48.69.02.33.91.54.37.42 2.2.3.13.88-1.35zm-3.9 4.8l-.17-.34-1.83.52-.19.34.24.49 1.12-.21.83-.8zm-17.76 38.99l-.04-.42.44-.66 1.98-.26.37-.51.16-1.43-2.16-.65-2.71 1.47-1.81.23-1.91 2.84.25.08 1.13-1.12.96.47.13 1.07 2.21-.29.54-.63.46-.19z"
                      class="state"></path>
            </a>
        </g>
        <g>
            <a id="ohio" aria-label="Ohio" class="state-link" href="//cite.case.law/#ohio">
                <path d="M415.79 117.21l-1.3.63.39 1.57-.43 2.83-.98 3.2-.91 2.64-.16 1.26-2.57 2.78-1.08.59-1.28.34-1.14-.27-2.1 2.09-.38 2.18-.3 1.18-.84.48-.12-1.35-1.27-.29-1.33 2.62-.15 2.66-1.23 1.67-2.34.3-1.76-1.15-.75-1.68-1.79.2-2.02.66-1.66-.69-2.24.34-1.45-.97-2-.86-2.51-2.72-1.67-1.17-3.23-.28.06-8.43.07-11.99.03-11.3 4.83-.1h4.29l3.56-.11h0l5.81 2.6 4.71.64 6.83-1.66 5.58-3.49 4.85-1.7z"
                      class="state"></path>
            </a>
        </g>
        <g>
            <a id="okla" aria-label="Oklahoma" class="state-link" href="//cite.case.law/#okla">
                <path d="M282.72 166.51l1.87 12.28-.19 11.14-.27 9.92-4.06-2.21-2.65-1.21-2.14.77-3.32-.12-1.96.02-1.61.92-1.58.47-1.38-.55-3.15.6-1.43-1.88-1.47 1.63-2.57-.73-2.65-1.76-2.83 1.14-1.24-2.73-4.39.27-2.81-.61-3.16-.81-1.4-2.36-2.48.76-1.54-.92-2.25-1.23v-22.32H203.76l-.02-5.81 9.08.04 8.87-.01 9.43-.01 9.43-.02 16.98-.02 16.97-.02 8.28-.01h.05z"
                      class="state"></path>
            </a>
        </g>
        <g>
            <a id="or" aria-label="Oregon" class="state-link" href="//cite.case.law/#or">
                <path d="M72.54 47.92l2.23 2.6 1.58 1.1.5 2.04-.95 1.74-1.27 3.45-1.35 4.29-2.03 2.62-1.33 2.99-.02 2.11 1.77.88.76 1.71-.82 3.71-.14 23.05v.04l-28.02.06-39.75-.09L.67 93.1l2.86-13.8.66-14.78 1.68-20.24 1.96-.18 2.88.06L13 45.4l2.74.77 1.75 2.59.25 2.26.7 1.89 2.18.51 2.31-.04 3.65-1.42 2.14-.43 3.37.58 1.48.7 1.98-.48 2.15-1.08 4.25.17 3.5-1.48 1.84-1.1 2.41.59 3.38-1.41z"
                      class="state"></path>
            </a>
        </g>
        <g>
            <a id="pa" aria-label="Pennsylvania" class="state-link" href="//cite.case.law/#pa">
                <path d="M470.87 108.32l-1.15.55-1.65 2.8-1.51 1.09.51 1.62-1.11 1.52-.04 1.99 1.02.38.17 1.31 2.97 3.19-1.22 1.34-2.23 1.62-.68.77-1.93 1.12-2.03-.64-.85.55-.73.97-8.3.03-8.07-.06-6.69.05-2.99.02-8.75-.01h-9.82v-11.32l.02-16.75h.01l7.11-3.66.02-.02v3.43H451.4l12.81.02 2.05 1.98 1.12 1.14-.25 1.39.61 1.82 1.61.87z"
                      class="state"></path>
            </a>
        </g>
        <g>
            <a id="pr" aria-label="Puerto Rico" class="state-link" href="//cite.case.law/#pr">
                <path d="M348.42 360.29l2.96.73.49-.24.69.49-2.59.81-.92-.45-.24.37-2.27.91-.96-.35-2.04.52-.75-.26-.39-.47.02-.6 4.31-.95.19-.37 1.5-.14zm1.81-6.44l.65.78.25-.34 1.25.24.72.45.21.5-.61.48-.55-.56-.72-.14.69.7-.24.42-1.44-1.5-.49-.95.28-.08zm-57.32-5.66l2.38.16 1.28.68 2.19.26 1.48-.3 1.25.18 1.32-.2 1.55.65 1.05.08.26-.39.77-.25 1.64-.14 1.48.36.73-.22 1.13.19 2.19.55.64-.62 1.27-.27 3.75.79.48-.32 1.62.51 1.13-.14.47.65 1.05-.48.44-.29 2.84.64.47.36.75-.05.32-.52 2.17.54.72-.3.85.54 1.34.19.7.77.81-.43.62.28v.46l.76.57.25.13.63-.34.73.75 1.19.18.59-.64.87-.25-.04.75-.56.69.32.49.05.94.02.85.51.97.64.81-.72.57-.64.37-1.06-.24-.86.39-.75.22-.7.27-1.44 1.78-.61 2.23-1.31.39.26.75-.18.67-.74.24-.91.61-1.08.41-2.06.25-.92-.45-.49.14-.79.84-1.01-.51-2.65 1.35-.5-.63-1.05-.57-.87.55-.2.7-1.63-.54-1.11-1.26-1.32.36-.77 1.06-2.55-1.83-1.31.1-2.55.92-1.45-.75-1.48.57-1.73-.88-.77.09-1.27.58-1.58.77-1.17-.08-1.21.06-.33.6-.16.23-1.1-.14-1.52-1.39-1.33.11-.55-.25-1.41 1.01-1.8-.28-.67-.38-.41.42.3.7-.38-.01-.67-.67-.01-1.18.28-.45.98-.33.15-.45-1.23-.51.25-1.52.66-1.01-.16-.84.04-1.04 1.07-1.32-.68-.76-.62-2.06-1.39-.44-1.19-2.19 1.95-.7 1.69-1.03.17-.69-.46-1.13.14-.71.87-.69 1.6-.22z"
                      class="state"></path>
            </a>
        </g>
        <g>
            <a id="ri" aria-label="Rhode Island" class="state-link" href="//cite.case.law/#ri">
                <path d="M504.43 106.58l-6.92 2.18.58-1.83-.08-6.88 3.98-.14.7 3.3 1.48 1.45z" class="state"></path>
            </a>
        </g>
        <g>
            <a id="sc" aria-label="South Carolina" class="state-link" href="//cite.case.law/#sc">
                <path d="M434.32 197.3l-3.7 7.91-8.23 6.91-9.86 5.63-1.62-.57-.86-.41.01-2.11-.92-2.08-1.76-1.22.32-.82-.56-1.24-.67-2.55-3.01-2.26-1.1-2.68-2.24-1.83-.65-1.41-3.28-2.68-1.12-2.01-1.76-3.59-1.64-.7-2.54-1.89 1.51-2.17 1.03-.95.95-.34 5.09-1.96 8.7.09 4.41.53.08 1.02.95-.76 1.47 1.94-.02 1.33 10.47.11z"
                      class="state"></path>
            </a>
        </g>
        <g>
            <a id="sd" aria-label="South Dakota" class="state-link" href="//cite.case.law/#sd">
                <path d="M265.52 80.99l-1.26.01-.01 3.15 1.21 1.72-.23 1.39-.49 2.06-.76 2.1 1.53 1.42-.01 1.17-1.59-.18-.8-.61-.43-1.06-2.59-1.07-2.44-1.65-3.37.13-2.24-.05-.81.59-3.47-1.02-2.44-1.62h-51.47l-.24-26.68.48-12.28 18.01-.06 19.34-.06 15.32.03 17.94-.74-.16 1.97-2.11 1.5-.51 1.83.93 2.07 1.65 1.04 1.15 12.71z"
                      class="state"></path>
            </a>
        </g>
        <g>
            <a id="tenn" aria-label="Tennessee" class="state-link" href="//cite.case.law/#tenn">
                <path d="M386.04 165.82l14.03.4 4.78-.23-.24 1.46.1 1.67-1.92.5-1.45 1.96-1.63-.23-3.48 2.19-.76-1.02-2.37 1.57.05.84-1.8.92-.93 1.02-2.16 1-2.22.53-1.91.31-1.34 1.39-.65 1.24-1.99.72-.21 2.43-5.03.12-7.28-.11-12.11-.15h-11.86l-10.34-.25h-9.29l1.07-1.07-.11-3.34 1.49-1.52.37-1.91 1.65-1.12.96-1.64.1-.96.73-2.84.57-1.66.25-1.13 13.47.11-.03-1.84 1.87-.02.31.53 5.9-.33 5.08.06 5.52.1 5.41.32 2.71-.14 8.31.5z"
                      class="state"></path>
            </a>
        </g>
        <g>
            <a id="tex" aria-label="Texas" class="state-link" href="//cite.case.law/#tex">
                <path d="M284.13 199.85l.49.74 1.83-.15 2.18.04-.54 6.38.57 11.89 1.55 1.25.52 1.71.81 2.55 1.09 2.5.83 1.49-.91 4-.6 1.19-.82 2.6.69.72-.03 2.17-1.41 1.43-.96 1.59.77 1.43-8.05 2.26-8.58 7.96-9.37 4.61-5.15 5.07-2.17 4.76-.09 7.27.47 5.03 1.79 3.55-3.68.32-6.7-2.3-7.35-3.24-2.64-4.93-2.08-7.39-5.56-6.04-3.26-6.26-4.73-7.34-6.65-4.3-7.71.21-5.95 8.5-7.82-3.22-4.88-3.25-2.34-5.95-3.13-5.68-5.61-4.81-4.82-3.47-3.44-3.9-1.05-1.77-.1-.94h34.22v-51.14H232.06v22.32l2.25 1.23 1.54.92 2.48-.76 1.4 2.36 3.16.81 2.81.61 4.39-.27 1.24 2.73 2.83-1.14 2.65 1.76 2.57.73 1.47-1.63 1.43 1.88 3.15-.6 1.38.55 1.58-.47 1.61-.92 1.96-.02 3.32.12 2.14-.77 2.65 1.21z"
                      class="state"></path>
            </a>
        </g>
        <g>
            <a id="utah" aria-label="Utah" class="state-link" href="//cite.case.law/#utah">
                <path d="M146.68 112.73l.08 48.4-13.68-.09-18.13-.02-15.21.18-.03-60.9 28.14-.11-.04 12.22z"
                      class="state"></path>
            </a>
        </g>
        <g>
            <a id="vt" aria-label="Vermont" class="state-link" href="//cite.case.law/#vt">
                <path d="M491.82 90.97l-7.78-.21.4-10.62-1.35-.1-.17-.49.6-1.89-.87-3.41.95-2.71-.52-2-.22-3.91.37-1.7.2-2.69 17.37-.02.02.01-1.11 3.61.7 1.89-.37 1.64-2.11 1.53-1.82.63-.32 1.28-.21 2.1-1.12 3.1-.78 1.13-1.03 2.59-.32 3.06-.29.81-.23 3.38-.74 1.66z"
                      class="state"></path>
            </a>
        </g>
        <g>
            <a id="vi" aria-label="Virgin Islands" class="state-link" href="//cite.case.law/#vi">
                <path d="M406.52 378.23l-1.47 1.33-2.04-.31-1.94.33-2.98 1.22-1.02-.61-1.95-.09-1.23.36-1.17.78-.51.08-.17-.36.01-.44.69-.54.29-.97.42-.37.27-.99-.76-2.64.04-1.08 1.58-1.79.53-.08 2.76.81 1.81-.51.71-.92 1.25-.01 1.41-.66 2.08.76.94.56.03-.93.91.32.43 1.31.88.23 1.5 1.25 1.78-.32 1.77-.91.83.12.82-.28 1.71.4 1.71-.26.74.32 3.62-.08.59.43-.78.74-2.53.07-1.04 1.07-2.56 1.05-1.72.26-2.34 1.23-2.2.3-1.13.47-.76-.45-1.14.05-.67-.25zm-24.48-35.15l.38.23 1.32-.83h.55l1.28.69.51 1.15.34-.27.25.14.09.83.63-.28.47-.83 2.13-.46.72.5-.21.41.17 1.01 1.78.92 1.1-.18 1.36.92-.25-.92-.43-.32 1.32-.41 1.15.09.97.74.04-.41.72-.18.09-.78-1.4.09-.09-.18.6-.37-.08-.23-1.02-.55-1.02-1.06-4.2-1.71-2.34-1.42 1.53 1.61-.42.73-1.19-.69-.76-.92-.34.46-2.76-.18-.77.18-.38.78-.77-.5-.38.41-2.17.32-.34.51-.51.18 1.15 1.06 1.18-.28zm5.64 3.58l.17-1.15.64-.27.42.42-.34-1.15-1.57 1.51.3.74.38-.1zm23.22.64l.11-2.46-.14-.38-1.06-.83-.25-.6.17-.18.63.65.39-.41.13-.82.76-.14-.09.96 1.23-.13.55.55-.3.69.59.28.94-1.1-.21-.37-.55-.33-.93.04-1.23-1.29h-.97l-.93-.55-1.23.09-.89-.46-.96-.09-.27.32.64.55-.38.6-1.78.13-1.36.64-.29-.42-.26.14v.87l-.93.5.08 1.38 1.23 1.15.81-.78.85-.14.38.46 1.23-.78 1.06.75 1.15-.2.17.69.42.32.98-.04.34.96.17-.22z"
                      class="state"></path>
            </a>
        </g>
        <g>
            <a id="va" aria-label="Virginia" class="state-link" href="//cite.case.law/#va">
                <path d="M456.94 159.1l2.71 7.29-10.12.06-9.98.1-18.79-.06-15.91-.51-4.78.23-14.02-.4 2.72-.66 1.94-.72.84-1.14 2.58-1.4 1-1.24.23-.95 2.94-1.38 3.77-3.52.42 2.01 1.06 1.07 1.43.95 2.97-1.42 1.13.83 3.52-.99.2-1.06 1.07.42 1.17-.86 1.31.17 1.5-.91.2-1.08-.15-1.39 1.28-2.06 1.82-1.56.46-1.76 1.62-2.13.9-2.61 1.25.93 1.4.86 1.35-.46.45-1.09.93-1.49 1.05-1.71.68.5 1.4-1.56 1.85-1.58 1.17-1.2.74-3.23 4.82 3.29 1.06-2.28 1.38.41 1.25.91-.69 1.3 1.99.73 1.76 1.35.78 1.03-.04.71-.17.97-1.61 1.13-1.07 2.67 1.25.65 1.53-.52.55 1.68 5.94 6.67 1.82 5.66.14.35zm7.34-9.99l-2.19.18-.74.81-3.23 8 .86.47 5.3-9.46z"
                      class="state"></path>
            </a>
        </g>
        <g>
            <a id="wash" aria-label="Washington" class="state-link" href="//cite.case.law/#wash">
                <path d="M71.44 6.17l.05 18.06.27 19.21.86 2.07-.08 2.41-19.46.1-3.38 1.41-2.41-.59-1.84 1.1-3.5 1.48-4.25-.17-2.15 1.08-1.98.48-1.48-.7-3.37-.58-2.14.43-3.65 1.42-2.31.04-2.18-.51-.7-1.89-.25-2.26-1.75-2.59L13 45.4l-2.29-1.24-2.88-.06-1.96.18L3.29 32.9 1.73 19.49l13.14 2.55 4.18 10.9 2.33-3.65-1.51-11.48L15.4 6.08l28.02.06z"
                      class="state"></path>
            </a>
        </g>
        <g>
            <a id="dc" aria-label="Washington D.C." class="state-link" href="//cite.case.law/#dc">
                <path d="M448.59 139.83l.05-.71-.79-1.04.77-.58 1.19 1.25z" class="state"></path>
            </a>
        </g>
        <g>
            <a id="w-va" aria-label="West Virginia" class="state-link" href="//cite.case.law/#w-va">
                <path d="M425.61 128.53l-.08 6.17 1.45-1.08 1.62-1.4 1.86-.49 1.27-1.27 2.78.49 1.03-.9 1.82-.93 2.91.97 1.15 1.74.74 1.55-1.05 2.28-4.82-3.29-.74 3.23-1.18 1.21-1.84 1.57-1.4 1.56-.68-.5-1.05 1.71-.93 1.49-.46 1.09-1.35.47-1.4-.86-1.25-.93-.91 2.61-1.61 2.13-.47 1.76-1.82 1.56-1.28 2.05.16 1.4-.21 1.08-1.49.92-1.32-.17-1.16.86-1.07-.42-.21 1.06-3.51.99-1.14-.83-2.97 1.42-1.43-.95-1.07-1.07-.42-2.01-1.83-.22-.95-1.43-1.37-1.54-.46-1.81-1.12-1.86.1-2.48-.18-1.14 2.34-.3 1.23-1.67.15-2.66 1.33-2.62 1.27.29.12 1.35.84-.48.3-1.18.38-2.18 2.1-2.09 1.14.27 1.28-.34 1.08-.59 2.57-2.78.16-1.26.91-2.64.98-3.2.43-2.83-.39-1.57 1.3-.63v11.32z"
                      class="state"></path>
            </a>
        </g>
        <g>
            <a id="wis" aria-label="Wisconsin" class="state-link" href="//cite.case.law/#wis">
                <path d="M322.55 40.01l.08.07.59-.28.01.04 1.48.45.76 2.46 8.25 2.43 5.44 2.44 2.67.02 1.83.18.52 2.22 2.23.86.84 1.88-.58 1.08-.43 2.18 2.08.12-.7 2.15 1.26 1.57.01-.02.24.1-.09.13-3.69 4.78 1.28 1.56 6.93-8.55 1.42-.05-4.9 10.21-2.13 9.13-1.79 7.33 1.18 6.29-.25 3.12h-.03v.03l-7.26-.11-9.84-.03h-9.63l-.92-1.95-3.08-1.23-.6-2.03-.39-1.15-.03-2.7.85-.98-1.23-2.05-.14-.71-.25-1.46-.02-3.13-.31-1.08-3.18-1.94-2.38-2.25-.66-1.41-1.06-.89-3.05-1.88-1.13-.12L300 64.3l.29-2.92.01-3.6.71-3.37-1.98-2.52 1.35-2.48 2.01-1.29 2.33-1.5.3.01-.1-7.64 2.48-.76h0l9.45-2.86z"
                      class="state"></path>
            </a>
        </g>
        <g>
            <a id="wyo" aria-label="Wyoming" class="state-link" href="//cite.case.law/#wyo">
                <path d="M193.61 60.79l.24 26.68.07 25.24h-9.45l-18.89.02h-18.9l-18.87-.32.04-12.22.01-32.08-.34-.24.17-.47-.04-6.73 18.57-.09 14.67.14 16.99-.07z"
                      class="state"></path>
            </a>
        </g>
    </g>
</svg>